<svg width="800" height="600" viewBox="-5.45 -6.11 10.9 12.22" xmlns="http://www.w3.org/2000/svg"><rect x="-5.45" y="-6.11" width="10.9" height="12.22" fill="#f8f9fa" stroke="#dee2e6" stroke-width="0.02"/><text x="0" y="-5.71" text-anchor="middle" font-family="Arial, sans-serif" font-size="0.15" font-weight="bold" fill="#212529">SOIC-14_3.9x8.7mm_P1.27mm - Alignment Analysis (Footprinter vs KiCad)</text><g id="footprint-a" opacity="0.85"><path d="M-3.45,3.5100000000000002 L-1.5,3.5100000000000002 L-1.5,4.11 L-3.45,4.11 L-3.45,3.5100000000000002 z" fill="#dc3545" stroke="#dc3545" stroke-width="0.02" fill-opacity="0.6" fill-rule="evenodd"/><path d="M-3.45,2.24 L-1.5,2.24 L-1.5,2.84 L-3.45,2.84 L-3.45,2.24 z" fill="#dc3545" stroke="#dc3545" stroke-width="0.02" fill-opacity="0.6" fill-rule="evenodd"/><path d="M-3.45,0.97 L-1.5,0.97 L-1.5,1.57 L-3.45,1.57 L-3.45,0.97 z" fill="#dc3545" stroke="#dc3545" stroke-width="0.02" fill-opacity="0.6" fill-rule="evenodd"/><path d="M-3.45,-0.3 L-1.5,-0.3 L-1.5,0.3 L-3.45,0.3 L-3.45,-0.3 z" fill="#dc3545" stroke="#dc3545" stroke-width="0.02" fill-opacity="0.6" fill-rule="evenodd"/><path d="M-3.45,-1.57 L-1.5,-1.57 L-1.5,-0.97 L-3.45,-0.97 L-3.45,-1.57 z" fill="#dc3545" stroke="#dc3545" stroke-width="0.02" fill-opacity="0.6" fill-rule="evenodd"/><path d="M-3.45,-2.8399999999999994 L-1.5,-2.8399999999999994 L-1.5,-2.2399999999999998 L-3.45,-2.2399999999999998 L-3.45,-2.8399999999999994 z" fill="#dc3545" stroke="#dc3545" stroke-width="0.02" fill-opacity="0.6" fill-rule="evenodd"/><path d="M-3.45,-4.11 L-1.5,-4.11 L-1.5,-3.5100000000000002 L-3.45,-3.5100000000000002 L-3.45,-4.11 z" fill="#dc3545" stroke="#dc3545" stroke-width="0.02" fill-opacity="0.6" fill-rule="evenodd"/><path d="M1.5,-4.11 L3.45,-4.11 L3.45,-3.5100000000000002 L1.5,-3.5100000000000002 L1.5,-4.11 z" fill="#dc3545" stroke="#dc3545" stroke-width="0.02" fill-opacity="0.6" fill-rule="evenodd"/><path d="M1.5,-2.84 L3.45,-2.84 L3.45,-2.24 L1.5,-2.24 L1.5,-2.84 z" fill="#dc3545" stroke="#dc3545" stroke-width="0.02" fill-opacity="0.6" fill-rule="evenodd"/><path d="M1.5,-1.57 L3.45,-1.57 L3.45,-0.97 L1.5,-0.97 L1.5,-1.57 z" fill="#dc3545" stroke="#dc3545" stroke-width="0.02" fill-opacity="0.6" fill-rule="evenodd"/><path d="M1.5,-0.3 L3.45,-0.3 L3.45,0.3 L1.5,0.3 L1.5,-0.3 z" fill="#dc3545" stroke="#dc3545" stroke-width="0.02" fill-opacity="0.6" fill-rule="evenodd"/><path d="M1.5,0.97 L3.45,0.97 L3.45,1.57 L1.5,1.57 L1.5,0.97 z" fill="#dc3545" stroke="#dc3545" stroke-width="0.02" fill-opacity="0.6" fill-rule="evenodd"/><path d="M1.5,2.2399999999999998 L3.45,2.2399999999999998 L3.45,2.8399999999999994 L1.5,2.8399999999999994 L1.5,2.2399999999999998 z" fill="#dc3545" stroke="#dc3545" stroke-width="0.02" fill-opacity="0.6" fill-rule="evenodd"/><path d="M1.5,3.5100000000000002 L3.45,3.5100000000000002 L3.45,4.11 L1.5,4.11 L1.5,3.5100000000000002 z" fill="#dc3545" stroke="#dc3545" stroke-width="0.02" fill-opacity="0.6" fill-rule="evenodd"/></g><g id="footprint-b" opacity="0.85"><path d="M-3.4499999999999993,3.5100000000000002 L-1.5,3.5100000000000002 L-1.5,4.11 L-3.4499999999999993,4.11 L-3.4499999999999993,3.5100000000000002 z" fill="#007bff" stroke="#007bff" stroke-width="0.02" fill-opacity="0.6" fill-rule="evenodd"/><path d="M-3.4499999999999993,2.24 L-1.5,2.24 L-1.5,2.84 L-3.4499999999999993,2.84 L-3.4499999999999993,2.24 z" fill="#007bff" stroke="#007bff" stroke-width="0.02" fill-opacity="0.6" fill-rule="evenodd"/><path d="M-3.4499999999999993,0.97 L-1.5,0.97 L-1.5,1.57 L-3.4499999999999993,1.57 L-3.4499999999999993,0.97 z" fill="#007bff" stroke="#007bff" stroke-width="0.02" fill-opacity="0.6" fill-rule="evenodd"/><path d="M-3.4499999999999993,-0.3 L-1.5,-0.3 L-1.5,0.3 L-3.4499999999999993,0.3 L-3.4499999999999993,-0.3 z" fill="#007bff" stroke="#007bff" stroke-width="0.02" fill-opacity="0.6" fill-rule="evenodd"/><path d="M-3.4499999999999993,-1.57 L-1.5,-1.57 L-1.5,-0.97 L-3.4499999999999993,-0.97 L-3.4499999999999993,-1.57 z" fill="#007bff" stroke="#007bff" stroke-width="0.02" fill-opacity="0.6" fill-rule="evenodd"/><path d="M-3.4499999999999993,-2.84 L-1.5,-2.84 L-1.5,-2.24 L-3.4499999999999993,-2.24 L-3.4499999999999993,-2.84 z" fill="#007bff" stroke="#007bff" stroke-width="0.02" fill-opacity="0.6" fill-rule="evenodd"/><path d="M-3.4499999999999993,-4.11 L-1.5,-4.11 L-1.5,-3.5100000000000002 L-3.4499999999999993,-3.5100000000000002 L-3.4499999999999993,-4.11 z" fill="#007bff" stroke="#007bff" stroke-width="0.02" fill-opacity="0.6" fill-rule="evenodd"/><path d="M1.5,-4.11 L3.4499999999999993,-4.11 L3.4499999999999993,-3.5100000000000002 L1.5,-3.5100000000000002 L1.5,-4.11 z" fill="#007bff" stroke="#007bff" stroke-width="0.02" fill-opacity="0.6" fill-rule="evenodd"/><path d="M1.5,-2.84 L3.4499999999999993,-2.84 L3.4499999999999993,-2.24 L1.5,-2.24 L1.5,-2.84 z" fill="#007bff" stroke="#007bff" stroke-width="0.02" fill-opacity="0.6" fill-rule="evenodd"/><path d="M1.5,-1.57 L3.4499999999999993,-1.57 L3.4499999999999993,-0.97 L1.5,-0.97 L1.5,-1.57 z" fill="#007bff" stroke="#007bff" stroke-width="0.02" fill-opacity="0.6" fill-rule="evenodd"/><path d="M1.5,-0.3 L3.4499999999999993,-0.3 L3.4499999999999993,0.3 L1.5,0.3 L1.5,-0.3 z" fill="#007bff" stroke="#007bff" stroke-width="0.02" fill-opacity="0.6" fill-rule="evenodd"/><path d="M1.5,0.97 L3.4499999999999993,0.97 L3.4499999999999993,1.57 L1.5,1.57 L1.5,0.97 z" fill="#007bff" stroke="#007bff" stroke-width="0.02" fill-opacity="0.6" fill-rule="evenodd"/><path d="M1.5,2.24 L3.4499999999999993,2.24 L3.4499999999999993,2.84 L1.5,2.84 L1.5,2.24 z" fill="#007bff" stroke="#007bff" stroke-width="0.02" fill-opacity="0.6" fill-rule="evenodd"/><path d="M1.5,3.5100000000000002 L3.4499999999999993,3.5100000000000002 L3.4499999999999993,4.11 L1.5,4.11 L1.5,3.5100000000000002 z" fill="#007bff" stroke="#007bff" stroke-width="0.02" fill-opacity="0.6" fill-rule="evenodd"/></g><g id="alignment-guides" opacity="0.3"><line x1="0" y1="-6.11" x2="0" y2="6.11" stroke="#6c757d" stroke-width="0.02" stroke-dasharray="0.1,0.1"/><line x1="-5.45" y1="0" x2="5.45" y2="0" stroke="#6c757d" stroke-width="0.02" stroke-dasharray="0.1,0.1"/></g><g font-family="Arial, sans-serif" font-size="0.15"><rect x="-5.25" y="5.11" width="10.5" height="0.8" fill="white" fill-opacity="0.9" stroke="#dee2e6" stroke-width="0.01" rx="0.05"/><rect x="-5.05" y="5.21" width="0.2" height="0.2" fill="#dc3545" fill-opacity="0.5" stroke="#dc3545" stroke-width="0.01"/><text x="-4.8" y="5.31" fill="#212529" font-weight="500" dominant-baseline="middle">soic14_w6.9mm_pl1.95mm_pw0.6mm</text><rect x="-1.0899999999999999" y="5.21" width="0.2" height="0.2" fill="#007bff" fill-opacity="0.5" stroke="#007bff" stroke-width="0.01"/><text x="-0.8399999999999999" y="5.31" fill="#212529" font-weight="500" dominant-baseline="middle">KiCad: SOIC-14_3.9x8.7mm_P1.27mm</text><text x="0" y="5.8100000000000005" text-anchor="middle" fill="#6c757d" font-size="0.12">Perfect alignment = complete overlap</text></g></svg>